<svg width="43" height="42" viewBox="0 0 43 42" fill="none" xmlns="http://www.w3.org/2000/svg">
<path d="M21.804 33.408L15.837 20.743C15.7917 20.641 15.7407 20.5163 15.684 20.369C15.6273 20.2217 15.5707 20.0687 15.514 19.91C15.5253 20.046 15.531 20.199 15.531 20.369C15.5423 20.5277 15.548 20.6637 15.548 20.777V33H10.652V9.2H15.582L21.328 21.865C21.4527 22.1143 21.5603 22.358 21.651 22.596C21.7417 22.8227 21.8267 23.0663 21.906 23.327C21.9967 23.0663 22.0873 22.817 22.178 22.579C22.2687 22.3297 22.365 22.0917 22.467 21.865L28.366 9.2H32.922V33H28.043V20.743C28.043 20.607 28.043 20.4597 28.043 20.301C28.043 20.131 28.0487 19.995 28.06 19.893C28.0033 20.029 27.941 20.1707 27.873 20.318C27.8163 20.4653 27.7597 20.5957 27.703 20.709L21.804 33.408Z" fill="white"/>
<path d="M41.206 1L41.206 17.1L37.894 17.1L37.894 4.197L30.1545 4.197L30.1545 0.999999L41.206 1ZM26.8511 0.723999C27.4185 0.723999 27.8938 0.907999 28.2771 1.276C28.6528 1.644 28.8406 2.10783 28.8406 2.6675C28.8406 3.21183 28.6528 3.67567 28.2771 4.059C27.8938 4.45 27.4185 4.6455 26.8511 4.6455C26.2838 4.6455 25.8085 4.45 25.4251 4.059C25.0341 3.67567 24.8386 3.21183 24.8386 2.6675C24.8386 2.10783 25.0341 1.644 25.4251 1.276C25.8085 0.907998 26.2838 0.723999 26.8511 0.723999Z" fill="white"/>
<path d="M1.794 41L1.794 24.9H5.106L5.106 37.803H12.8455L12.8455 41H1.794ZM16.1489 41.276C15.5815 41.276 15.1062 41.092 14.7229 40.724C14.3472 40.356 14.1594 39.8922 14.1594 39.3325C14.1594 38.7882 14.3472 38.3243 14.7229 37.941C15.1062 37.55 15.5815 37.3545 16.1489 37.3545C16.7162 37.3545 17.1915 37.55 17.5749 37.941C17.9659 38.3243 18.1614 38.7882 18.1614 39.3325C18.1614 39.8922 17.9659 40.356 17.5749 40.724C17.1915 41.092 16.7162 41.276 16.1489 41.276Z" fill="white"/>
</svg>
