<svg width="142" height="96" viewBox="0 0 142 96" fill="none" xmlns="http://www.w3.org/2000/svg">
<path d="M140.77 16.0654L41.9697 66.4531L1.22949 50.9336L100.029 0.545898L140.77 16.0654Z" fill="black" stroke="#FFDA54"/>
<path d="M87.5 8.9043C87.6465 9.04113 87.8054 9.17326 87.9746 9.29883C88.8562 9.95288 90.0999 10.521 91.5918 10.9893C94.5818 11.9276 98.6818 12.5 103.188 12.5C107.695 12.5 111.795 11.9276 114.785 10.9893C116.277 10.521 117.522 9.953 118.403 9.29883C118.572 9.17346 118.731 9.04187 118.877 8.90527V16.9385C118.375 17.7236 117.056 18.9541 114.618 20.0088C112.081 21.1066 108.362 22 103.188 22C98.0039 22 94.2737 21.2722 91.7266 20.377C89.3196 19.5309 88.0104 18.5506 87.5 17.9277V8.9043ZM103.188 2C109.247 2 113.14 2.89752 115.536 3.9873C117.9 5.06211 118.729 6.28259 118.873 6.95703C118.857 7.41729 118.553 7.9419 117.808 8.49512C117.051 9.0566 115.924 9.58403 114.486 10.0352C111.617 10.9356 107.623 11.5 103.188 11.5C98.7547 11.5 94.7606 10.9355 91.8916 10.0352C90.4541 9.58402 89.3271 9.05662 88.5703 8.49512C87.8251 7.94217 87.5192 7.41812 87.5029 6.95801C87.6464 6.28379 88.4768 5.06279 90.8418 3.9873C93.2383 2.89756 97.1304 2.00002 103.188 2Z" fill="black" stroke="#FFDA54"/>
<path d="M67.5 18.9043C67.6465 19.0411 67.8054 19.1733 67.9746 19.2988C68.8562 19.9529 70.0999 20.521 71.5918 20.9893C74.5818 21.9276 78.6818 22.5 83.1885 22.5C87.695 22.5 91.7951 21.9276 94.7852 20.9893C96.2772 20.521 97.5217 19.953 98.4033 19.2988C98.5723 19.1735 98.7307 19.0419 98.877 18.9053V26.9385C98.3745 27.7236 97.0561 28.9541 94.6182 30.0088C92.0805 31.1066 88.3617 32 83.1885 32C78.0039 32 74.2737 31.2722 71.7266 30.377C69.3196 29.5309 68.0104 28.5506 67.5 27.9277V18.9043ZM83.1885 12C89.2468 12 93.1397 12.8975 95.5361 13.9873C97.8995 15.0621 98.7288 16.2826 98.873 16.957C98.8571 17.4173 98.5531 17.9419 97.8076 18.4951C97.0509 19.0566 95.9237 19.584 94.4863 20.0352C91.6173 20.9356 87.6225 21.5 83.1885 21.5C78.7547 21.5 74.7606 20.9355 71.8916 20.0352C70.4541 19.584 69.3271 19.0566 68.5703 18.4951C67.8251 17.9422 67.5192 17.4181 67.5029 16.958C67.6464 16.2838 68.4768 15.0628 70.8418 13.9873C73.2383 12.8976 77.1304 12 83.1885 12Z" fill="black" stroke="#FFDA54"/>
<path d="M47.5 28.9043C47.6465 29.0411 47.8054 29.1733 47.9746 29.2988C48.8562 29.9529 50.0999 30.521 51.5918 30.9893C54.5818 31.9276 58.6818 32.5 63.1885 32.5C67.695 32.5 71.7951 31.9276 74.7852 30.9893C76.2772 30.521 77.5217 29.953 78.4033 29.2988C78.5723 29.1735 78.7307 29.0419 78.877 28.9053V36.9385C78.3745 37.7236 77.0561 38.9541 74.6182 40.0088C72.0805 41.1066 68.3617 42 63.1885 42C58.0039 42 54.2737 41.2722 51.7266 40.377C49.3196 39.5309 48.0104 38.5506 47.5 37.9277V28.9043ZM63.1885 22C69.2468 22 73.1397 22.8975 75.5361 23.9873C77.8995 25.0621 78.7288 26.2826 78.873 26.957C78.8571 27.4173 78.5531 27.9419 77.8076 28.4951C77.0509 29.0566 75.9237 29.584 74.4863 30.0352C71.6173 30.9356 67.6225 31.5 63.1885 31.5C58.7547 31.5 54.7606 30.9355 51.8916 30.0352C50.4541 29.584 49.3271 29.0566 48.5703 28.4951C47.8251 27.9422 47.5192 27.4181 47.5029 26.958C47.6464 26.2838 48.4768 25.0628 50.8418 23.9873C53.2383 22.8976 57.1304 22 63.1885 22Z" fill="black" stroke="#FFDA54"/>
<path d="M27.5 38.9043C27.6465 39.0411 27.8054 39.1733 27.9746 39.2988C28.8562 39.9529 30.0999 40.521 31.5918 40.9893C34.5818 41.9276 38.6818 42.5 43.1885 42.5C47.695 42.5 51.7951 41.9276 54.7852 40.9893C56.2772 40.521 57.5217 39.953 58.4033 39.2988C58.5723 39.1735 58.7307 39.0419 58.877 38.9053V46.9385C58.3745 47.7236 57.0561 48.9541 54.6182 50.0088C52.0805 51.1066 48.3617 52 43.1885 52C38.0039 52 34.2737 51.2722 31.7266 50.377C29.3196 49.5309 28.0104 48.5506 27.5 47.9277V38.9043ZM43.1885 32C49.2468 32 53.1397 32.8975 55.5361 33.9873C57.8995 35.0621 58.7288 36.2826 58.873 36.957C58.8571 37.4173 58.5531 37.9419 57.8076 38.4951C57.0509 39.0566 55.9237 39.584 54.4863 40.0352C51.6173 40.9356 47.6225 41.5 43.1885 41.5C38.7547 41.5 34.7606 40.9355 31.8916 40.0352C30.4541 39.584 29.3271 39.0566 28.5703 38.4951C27.8251 37.9422 27.5192 37.4181 27.5029 36.958C27.6464 36.2838 28.4768 35.0628 30.8418 33.9873C33.2383 32.8976 37.1304 32 43.1885 32Z" fill="black" stroke="#FFDA54"/>
<path d="M41.5 67.3438V95.2744L0.5 79.6553V51.7246L41.5 67.3438Z" fill="black" stroke="#FFDA54"/>
<path d="M141.5 44.6934L42.5 95.1836V67.3057L141.5 16.8154V44.6934Z" fill="black" stroke="#FFDA54"/>
</svg>
